# xmcd CD database file
#
# Track frame offsets:
#	187
#	6750
#	19530
#	38002
#	57460
#	70695
#	96515
#	114142
#	133875
#	148930
#	167370
#	187872
#
# Disc length: 2694 seconds
#
# Revision: 0
# Processed by: cddbd v1.5.1PL0 Copyright (c) Steve Scherf et al.
# Submitted via: CDex 1.51
#
DISCID=990a840c
DTITLE=式部 - 漣歌
DYEAR=1900
DGENRE=New Age
TTITLE0=漣歌[天綱]
TTITLE1=散る時
TTITLE2=The Air
TTITLE3=海、そして砂浜
TTITLE4=漣歌[虹彩]
TTITLE5=孤独の歩み
TTITLE6=Children Song
TTITLE7=伝説の覇者
TTITLE8=陽と影
TTITLE9=安息の地の晴れた日
TTITLE10=大地礼讃
TTITLE11=漣歌[レクイエム]
EXTD=
EXTT0=
EXTT1=
EXTT2=
EXTT3=
EXTT4=
EXTT5=
EXTT6=
EXTT7=
EXTT8=
EXTT9=
EXTT10=
EXTT11=
PLAYORDER=
